<svg width="10" height="10" viewBox="0 0 10 10" fill="none" xmlns="http://www.w3.org/2000/svg">
<path d="M7.66025 4.45272L2.32571 1.37393C2.26779 1.34048 2.20208 1.32288 2.13519 1.32288C2.06831 1.32288 2.0026 1.34048 1.94467 1.37393C1.88652 1.4075 1.83828 1.45584 1.80482 1.51405C1.77137 1.57227 1.75389 1.63829 1.75415 1.70543V7.86302C1.75389 7.93016 1.77137 7.99618 1.80482 8.05439C1.83828 8.11261 1.88652 8.16095 1.94467 8.19452C2.0026 8.22796 2.06831 8.24557 2.13519 8.24557C2.20208 8.24557 2.26779 8.22796 2.32571 8.19452L7.66025 5.11573C7.7189 5.08249 7.76767 5.0343 7.80161 4.97606C7.83554 4.91782 7.85342 4.85163 7.85342 4.78422C7.85342 4.71682 7.83554 4.65062 7.80161 4.59238C7.76767 4.53415 7.7189 4.48595 7.66025 4.45272Z" fill="#070707"/>
</svg>
