<svg width="32" height="33" viewBox="0 0 32 33" fill="none" xmlns="http://www.w3.org/2000/svg">
<rect y="0.2229" width="32" height="32" rx="7.2" fill="#FFE449"/>
<mask id="path-2-inside-1_2_3476" fill="white">
<path fill-rule="evenodd" clip-rule="evenodd" d="M15.7188 8.26536C15.9014 8.20451 16.0987 8.20451 16.2812 8.26536L23.395 10.6366C23.7582 10.7577 24.0031 11.0975 24.0031 11.4802C24.0031 11.863 23.7582 12.2028 23.395 12.3238L20.4671 13.2998C20.7132 13.7714 20.8844 14.2815 20.9719 14.8118C21.1309 15.7766 21.0059 16.7667 20.6119 17.6616C20.28 18.4156 19.7693 19.0745 19.1268 19.5829C19.2642 19.6467 19.3999 19.7149 19.5335 19.7873C20.6185 20.3752 21.5397 21.2244 22.2137 22.2581C22.4819 22.6695 22.3658 23.2205 21.9544 23.4887C21.5431 23.7569 20.9921 23.6408 20.7239 23.2294C20.2115 22.4436 19.5112 21.7979 18.6863 21.3511C17.8615 20.9041 16.9382 20.6701 16 20.6701C15.0619 20.6701 14.1386 20.9041 13.3137 21.3511C12.4889 21.7979 11.7885 22.4436 11.2762 23.2294C11.0079 23.6408 10.457 23.7569 10.0456 23.4887C9.63422 23.2205 9.51815 22.6695 9.78638 22.2581C10.4603 21.2244 11.3815 20.3752 12.4665 19.7873C12.6002 19.7149 12.7358 19.6467 12.8732 19.5829C12.2308 19.0745 11.7201 18.4156 11.3881 17.6616C10.9942 16.7667 10.8691 15.7766 11.0282 14.8118C11.1156 14.2815 11.2868 13.7714 11.5329 13.2998L9.77541 12.714V17.4084C9.77541 17.8995 9.37729 18.2976 8.88618 18.2976C8.39507 18.2976 7.99695 17.8995 7.99695 17.4084V11.4802V11.4802C7.99695 11.1948 8.13143 10.9408 8.3405 10.7781C8.42455 10.7126 8.52066 10.662 8.62493 10.63L15.7188 8.26536ZM13.2846 12.0091C13.2428 11.9914 13.1999 11.9772 13.1564 11.9663L11.6982 11.4802L16 10.0463L20.3019 11.4802L18.8436 11.9663C18.8001 11.9772 18.7573 11.9914 18.7155 12.009L16 12.9142L13.2846 12.0091ZM13.254 13.8735C13.0163 14.2448 12.8553 14.6622 12.7829 15.101C12.6801 15.7253 12.761 16.366 13.0159 16.9451C13.2707 17.5241 13.6886 18.0165 14.2185 18.3621C14.7483 18.7078 15.3674 18.8916 16 18.8916C16.6327 18.8916 17.2517 18.7078 17.7816 18.3621C18.3114 18.0165 18.7293 17.5241 18.9842 16.9451C19.2391 16.366 19.32 15.7253 19.2171 15.101C19.1448 14.6622 18.9838 14.2448 18.7461 13.8735L16.2812 14.6951C16.0987 14.756 15.9014 14.756 15.7188 14.6951L13.254 13.8735Z"/>
</mask>
<path fill-rule="evenodd" clip-rule="evenodd" d="M15.7188 8.26536C15.9014 8.20451 16.0987 8.20451 16.2812 8.26536L23.395 10.6366C23.7582 10.7577 24.0031 11.0975 24.0031 11.4802C24.0031 11.863 23.7582 12.2028 23.395 12.3238L20.4671 13.2998C20.7132 13.7714 20.8844 14.2815 20.9719 14.8118C21.1309 15.7766 21.0059 16.7667 20.6119 17.6616C20.28 18.4156 19.7693 19.0745 19.1268 19.5829C19.2642 19.6467 19.3999 19.7149 19.5335 19.7873C20.6185 20.3752 21.5397 21.2244 22.2137 22.2581C22.4819 22.6695 22.3658 23.2205 21.9544 23.4887C21.5431 23.7569 20.9921 23.6408 20.7239 23.2294C20.2115 22.4436 19.5112 21.7979 18.6863 21.3511C17.8615 20.9041 16.9382 20.6701 16 20.6701C15.0619 20.6701 14.1386 20.9041 13.3137 21.3511C12.4889 21.7979 11.7885 22.4436 11.2762 23.2294C11.0079 23.6408 10.457 23.7569 10.0456 23.4887C9.63422 23.2205 9.51815 22.6695 9.78638 22.2581C10.4603 21.2244 11.3815 20.3752 12.4665 19.7873C12.6002 19.7149 12.7358 19.6467 12.8732 19.5829C12.2308 19.0745 11.7201 18.4156 11.3881 17.6616C10.9942 16.7667 10.8691 15.7766 11.0282 14.8118C11.1156 14.2815 11.2868 13.7714 11.5329 13.2998L9.77541 12.714V17.4084C9.77541 17.8995 9.37729 18.2976 8.88618 18.2976C8.39507 18.2976 7.99695 17.8995 7.99695 17.4084V11.4802V11.4802C7.99695 11.1948 8.13143 10.9408 8.3405 10.7781C8.42455 10.7126 8.52066 10.662 8.62493 10.63L15.7188 8.26536ZM13.2846 12.0091C13.2428 11.9914 13.1999 11.9772 13.1564 11.9663L11.6982 11.4802L16 10.0463L20.3019 11.4802L18.8436 11.9663C18.8001 11.9772 18.7573 11.9914 18.7155 12.009L16 12.9142L13.2846 12.0091ZM13.254 13.8735C13.0163 14.2448 12.8553 14.6622 12.7829 15.101C12.6801 15.7253 12.761 16.366 13.0159 16.9451C13.2707 17.5241 13.6886 18.0165 14.2185 18.3621C14.7483 18.7078 15.3674 18.8916 16 18.8916C16.6327 18.8916 17.2517 18.7078 17.7816 18.3621C18.3114 18.0165 18.7293 17.5241 18.9842 16.9451C19.2391 16.366 19.32 15.7253 19.2171 15.101C19.1448 14.6622 18.9838 14.2448 18.7461 13.8735L16.2812 14.6951C16.0987 14.756 15.9014 14.756 15.7188 14.6951L13.254 13.8735Z" fill="#070707"/>
<path d="M16.2812 8.26536L16.2179 8.4551L16.2179 8.4551L16.2812 8.26536ZM15.7188 8.26536L15.7821 8.4551L15.7821 8.4551L15.7188 8.26536ZM23.395 10.6366L23.3318 10.8264L23.3318 10.8264L23.395 10.6366ZM23.395 12.3238L23.3318 12.1341L23.3318 12.1341L23.395 12.3238ZM20.4671 13.2998L20.4038 13.1101L20.1812 13.1843L20.2898 13.3923L20.4671 13.2998ZM20.9719 14.8118L20.7745 14.8443L20.9719 14.8118ZM20.6119 17.6616L20.795 17.7422L20.795 17.7422L20.6119 17.6616ZM19.1268 19.5829L19.0027 19.426L18.7482 19.6274L19.0425 19.7642L19.1268 19.5829ZM19.5335 19.7873L19.4383 19.9632L19.5335 19.7873ZM22.2137 22.2581L22.0461 22.3674L22.0461 22.3674L22.2137 22.2581ZM21.9544 23.4887L21.8452 23.3211L21.8452 23.3211L21.9544 23.4887ZM20.7239 23.2294L20.8915 23.1202L20.8914 23.1202L20.7239 23.2294ZM18.6863 21.3511L18.5911 21.5269L18.5911 21.5269L18.6863 21.3511ZM13.3137 21.3511L13.409 21.5269L13.409 21.5269L13.3137 21.3511ZM11.2762 23.2294L11.1086 23.1202L11.1086 23.1202L11.2762 23.2294ZM10.0456 23.4887L10.1549 23.3211L10.1548 23.3211L10.0456 23.4887ZM9.78638 22.2581L9.95391 22.3674L9.95391 22.3674L9.78638 22.2581ZM12.4665 19.7873L12.5618 19.9632L12.5618 19.9632L12.4665 19.7873ZM12.8732 19.5829L12.9575 19.7642L13.2518 19.6274L12.9973 19.426L12.8732 19.5829ZM11.3881 17.6616L11.2051 17.7422L11.2051 17.7422L11.3881 17.6616ZM11.0282 14.8118L10.8308 14.7793L11.0282 14.8118ZM11.5329 13.2998L11.7102 13.3924L11.8188 13.1843L11.5962 13.1101L11.5329 13.2998ZM9.77541 12.714L9.83865 12.5242L9.57541 12.4365V12.714H9.77541ZM8.3405 10.7781L8.46333 10.9359H8.46333L8.3405 10.7781ZM8.62493 10.63L8.68362 10.8212L8.68817 10.8197L8.62493 10.63ZM13.1564 11.9663L13.0931 12.156L13.1004 12.1585L13.1078 12.1603L13.1564 11.9663ZM13.2846 12.0091L13.2071 12.1934L13.2141 12.1964L13.2214 12.1988L13.2846 12.0091ZM11.6982 11.4802L11.6349 11.2905L11.0657 11.4802L11.6349 11.67L11.6982 11.4802ZM16 10.0463L16.0633 9.85655L16 9.83547L15.9368 9.85655L16 10.0463ZM20.3019 11.4802L20.3651 11.67L20.9343 11.4802L20.3651 11.2905L20.3019 11.4802ZM18.8436 11.9663L18.8922 12.1603L18.8996 12.1585L18.9068 12.1561L18.8436 11.9663ZM18.7155 12.009L18.7788 12.1988L18.786 12.1963L18.7931 12.1934L18.7155 12.009ZM16 12.9142L15.9368 13.1039L16 13.125L16.0633 13.1039L16 12.9142ZM13.254 13.8735L13.3172 13.6837L13.1695 13.6345L13.0855 13.7657L13.254 13.8735ZM12.7829 15.101L12.5856 15.0685L12.5856 15.0685L12.7829 15.101ZM13.0159 16.9451L13.1989 16.8645L13.1989 16.8645L13.0159 16.9451ZM14.2185 18.3621L14.1092 18.5296L14.2185 18.3621ZM16 18.8916L16 18.6916H16L16 18.8916ZM17.7816 18.3621L17.8908 18.5296H17.8908L17.7816 18.3621ZM18.9842 16.9451L18.8011 16.8645L18.8011 16.8645L18.9842 16.9451ZM19.2171 15.101L19.4145 15.0685L19.4145 15.0685L19.2171 15.101ZM18.7461 13.8735L18.9145 13.7656L18.8305 13.6345L18.6828 13.6837L18.7461 13.8735ZM16.2812 14.6951L16.2179 14.5054L16.2179 14.5054L16.2812 14.6951ZM15.7188 14.6951L15.7821 14.5054L15.7821 14.5054L15.7188 14.6951ZM16.3444 8.07563C16.1208 8.00109 15.8792 8.00109 15.6556 8.07563L15.7821 8.4551C15.9236 8.40794 16.0765 8.40794 16.2179 8.4551L16.3444 8.07563ZM23.4583 10.4469L16.3444 8.07563L16.2179 8.4551L23.3318 10.8264L23.4583 10.4469ZM24.2031 11.4802C24.2031 11.0114 23.9031 10.5952 23.4583 10.4469L23.3318 10.8264C23.6133 10.9202 23.8031 11.1836 23.8031 11.4802H24.2031ZM23.4583 12.5136C23.9031 12.3653 24.2031 11.9491 24.2031 11.4802H23.8031C23.8031 11.7769 23.6133 12.0403 23.3318 12.1341L23.4583 12.5136ZM20.5303 13.4895L23.4583 12.5136L23.3318 12.1341L20.4038 13.1101L20.5303 13.4895ZM20.2898 13.3923C20.5262 13.8452 20.6906 14.335 20.7745 14.8443L21.1692 14.7793C21.0783 14.2279 20.9003 13.6976 20.6444 13.2073L20.2898 13.3923ZM20.7745 14.8443C20.9273 15.7708 20.8072 16.7216 20.4289 17.581L20.795 17.7422C21.2045 16.8118 21.3346 15.7823 21.1692 14.7793L20.7745 14.8443ZM20.4289 17.581C20.1101 18.3051 19.6197 18.9379 19.0027 19.426L19.2509 19.7397C19.9189 19.2112 20.4499 18.5261 20.795 17.7422L20.4289 17.581ZM19.0425 19.7642C19.1762 19.8264 19.3082 19.8927 19.4383 19.9632L19.6288 19.6115C19.4915 19.5371 19.3522 19.4671 19.2111 19.4015L19.0425 19.7642ZM19.4383 19.9632C20.494 20.5352 21.3904 21.3616 22.0461 22.3674L22.3812 22.1489C21.6891 21.0873 20.743 20.2152 19.6288 19.6115L19.4383 19.9632ZM22.0461 22.3674C22.254 22.6862 22.1641 23.1133 21.8452 23.3211L22.0636 23.6562C22.5676 23.3277 22.7098 22.6528 22.3812 22.1489L22.0461 22.3674ZM21.8452 23.3211C21.5264 23.529 21.0993 23.4391 20.8915 23.1202L20.5564 23.3386C20.8849 23.8426 21.5598 23.9848 22.0637 23.6562L21.8452 23.3211ZM20.8914 23.1202C20.3609 22.3065 19.6357 21.6379 18.7816 21.1752L18.5911 21.5269C19.3867 21.9579 20.0622 22.5807 20.5564 23.3387L20.8914 23.1202ZM18.7816 21.1752C17.9275 20.7125 16.9714 20.4701 16 20.4701V20.8701C16.9049 20.8701 17.7955 21.0958 18.5911 21.5269L18.7816 21.1752ZM16 20.4701C15.0286 20.4701 14.0726 20.7125 13.2184 21.1752L13.409 21.5269C14.2046 21.0958 15.0952 20.8701 16 20.8701V20.4701ZM13.2185 21.1752C12.3644 21.6379 11.6392 22.3065 11.1086 23.1202L11.4437 23.3387C11.9379 22.5807 12.6134 21.9579 13.409 21.5269L13.2185 21.1752ZM11.1086 23.1202C10.9007 23.4391 10.4737 23.529 10.1549 23.3211L9.93638 23.6562C10.4403 23.9848 11.1152 23.8426 11.4437 23.3386L11.1086 23.1202ZM10.1548 23.3211C9.83598 23.1133 9.74602 22.6862 9.95391 22.3674L9.61884 22.1489C9.29029 22.6528 9.43246 23.3277 9.93639 23.6562L10.1548 23.3211ZM9.95391 22.3674C10.6097 21.3615 11.5061 20.5352 12.5618 19.9632L12.3713 19.6115C11.257 20.2152 10.311 21.0873 9.61884 22.1489L9.95391 22.3674ZM12.5618 19.9632C12.6919 19.8927 12.8238 19.8264 12.9575 19.7642L12.7889 19.4015C12.6478 19.4671 12.5085 19.5371 12.3713 19.6115L12.5618 19.9632ZM12.9973 19.426C12.3804 18.9379 11.8899 18.3051 11.5712 17.581L11.2051 17.7422C11.5502 18.5261 12.0812 19.2112 12.7491 19.7397L12.9973 19.426ZM11.5712 17.581C11.1929 16.7216 11.0728 15.7708 11.2255 14.8443L10.8308 14.7793C10.6655 15.7823 10.7955 16.8117 11.2051 17.7422L11.5712 17.581ZM11.2255 14.8443C11.3095 14.335 11.4739 13.8452 11.7102 13.3924L11.3556 13.2073C11.0997 13.6976 10.9217 14.2279 10.8308 14.7793L11.2255 14.8443ZM9.71216 12.9037L11.4697 13.4895L11.5962 13.1101L9.83865 12.5242L9.71216 12.9037ZM9.97541 17.4084V12.714H9.57541V17.4084H9.97541ZM8.88618 18.4976C9.48775 18.4976 9.97541 18.01 9.97541 17.4084H9.57541C9.57541 17.789 9.26683 18.0976 8.88618 18.0976V18.4976ZM7.79695 17.4084C7.79695 18.01 8.28461 18.4976 8.88618 18.4976V18.0976C8.50553 18.0976 8.19695 17.789 8.19695 17.4084H7.79695ZM7.79695 11.4802V17.4084H8.19695V11.4802H7.79695ZM7.79695 11.4802V11.4802H8.19695V11.4802H7.79695ZM8.21766 10.6202C7.96201 10.8192 7.79695 11.1305 7.79695 11.4802H8.19695C8.19695 11.2591 8.30086 11.0623 8.46333 10.9359L8.21766 10.6202ZM8.56625 10.4388C8.43831 10.4781 8.32053 10.5402 8.21766 10.6202L8.46333 10.9359C8.52857 10.8851 8.60301 10.8459 8.6836 10.8212L8.56625 10.4388ZM15.6556 8.07563L8.56168 10.4402L8.68817 10.8197L15.7821 8.4551L15.6556 8.07563ZM13.1078 12.1603C13.1415 12.1688 13.1747 12.1798 13.2071 12.1934L13.3622 11.8247C13.3109 11.8031 13.2583 11.7856 13.2049 11.7723L13.1078 12.1603ZM13.2196 11.7766L11.7614 11.2905L11.6349 11.67L13.0931 12.156L13.2196 11.7766ZM11.7614 11.67L16.0633 10.236L15.9368 9.85655L11.6349 11.2905L11.7614 11.67ZM15.9368 10.236L20.2386 11.67L20.3651 11.2905L16.0633 9.85655L15.9368 10.236ZM20.2386 11.2905L18.7803 11.7766L18.9068 12.1561L20.3651 11.67L20.2386 11.2905ZM18.7931 12.1934C18.8254 12.1798 18.8585 12.1688 18.8922 12.1603L18.795 11.7723C18.7417 11.7857 18.6892 11.8031 18.638 11.8247L18.7931 12.1934ZM18.6523 11.8193L15.9368 12.7245L16.0633 13.1039L18.7788 12.1988L18.6523 11.8193ZM16.0633 12.7245L13.3479 11.8193L13.2214 12.1988L15.9368 13.1039L16.0633 12.7245ZM13.0855 13.7657C12.8333 14.1598 12.6624 14.6027 12.5856 15.0685L12.9803 15.1336C13.0482 14.7216 13.1993 14.3299 13.4224 13.9813L13.0855 13.7657ZM12.5856 15.0685C12.4764 15.731 12.5623 16.4111 12.8328 17.0256L13.1989 16.8645C12.9597 16.3209 12.8837 15.7195 12.9803 15.1336L12.5856 15.0685ZM12.8328 17.0256C13.1033 17.6402 13.5468 18.1628 14.1092 18.5296L14.3278 18.1946C13.8304 17.8702 13.4382 17.408 13.1989 16.8645L12.8328 17.0256ZM14.1092 18.5296C14.6716 18.8966 15.3286 19.0916 16 19.0916L16 18.6916C15.4061 18.6916 14.8251 18.5191 14.3278 18.1946L14.1092 18.5296ZM16 19.0916C16.6714 19.0916 17.3284 18.8966 17.8908 18.5296L17.6723 18.1946C17.175 18.5191 16.5939 18.6916 16 18.6916L16 19.0916ZM17.8908 18.5296C18.4532 18.1628 18.8967 17.6402 19.1672 17.0256L18.8011 16.8645C18.5619 17.408 18.1696 17.8702 17.6723 18.1946L17.8908 18.5296ZM19.1672 17.0256C19.4378 16.4111 19.5236 15.731 19.4145 15.0685L19.0198 15.1336C19.1163 15.7195 19.0404 16.3209 18.8011 16.8645L19.1672 17.0256ZM19.4145 15.0685C19.3377 14.6027 19.1668 14.1597 18.9145 13.7656L18.5776 13.9813C18.8008 14.3299 18.9519 14.7216 19.0198 15.1336L19.4145 15.0685ZM16.3444 14.8848L18.8093 14.0632L18.6828 13.6837L16.2179 14.5054L16.3444 14.8848ZM15.6556 14.8848C15.8792 14.9594 16.1209 14.9594 16.3445 14.8848L16.2179 14.5054C16.0764 14.5525 15.9236 14.5525 15.7821 14.5054L15.6556 14.8848ZM13.1907 14.0632L15.6556 14.8848L15.7821 14.5054L13.3172 13.6837L13.1907 14.0632Z" fill="#FFE449" mask="url(#path-2-inside-1_2_3476)"/>
</svg>
